<?xml version="1.0" encoding="UTF-8" standalone="no"?>
<svg width="24px" height="21px" viewBox="0 0 24 21" version="1.1" xmlns="http://www.w3.org/2000/svg" xmlns:xlink="http://www.w3.org/1999/xlink">
    <!-- Generator: Sketch 3.7.2 (28276) - http://www.bohemiancoding.com/sketch -->
    <title>Sketch Copy</title>
    <desc>Created with Sketch.</desc>
    <defs></defs>
    <g id="Page-1" stroke="none" stroke-width="1" fill="none" fill-rule="evenodd">
        <g id="Search-functionality" transform="translate(-717.000000, -591.000000)" stroke="#FFFFFF">
            <g id="Header" transform="translate(0.000000, -65.000000)">
                <g id="hero-bg">
                    <g id="btn" transform="translate(682.000000, 636.000000)">
                        <g id="Sketch-Copy" transform="translate(36.000000, 21.000000)">
                            <path d="M0,5.32258065 L3.09983282,1.5415717 L6.7624515,0 L11,1.53736807e-07 M11,20 L0,5.32258065 M22,5.32258065 L18.9001672,1.5415717 L15.2375485,0 L11,1.53736807e-07 M11,20 L22,5.32258065" id="Mask-Copy"></path>
                            <polyline id="Path-230" points="3.15441176 1.55278441 6.81894929 3.70967742 15.2218244 3.70967742 18.8455882 1.53225806"></polyline>
                            <polyline id="Path-230" points="15.2058824 3.70967742 18.195991 7.5 21.6764706 5.02451195"></polyline>
                            <polyline id="Path-230-Copy" points="0.323529412 3.70967742 3.31362457 7.5 6.875 4.94453152"></polyline>
                            <path d="M18.2794118,7.5 L11,20" id="Path-230"></path>
                            <path d="M3.88235294,7.5 L11,19.7580645" id="Path-230-Copy-2"></path>
                            <path d="M3.96323529,7.5 L18.1176471,7.5" id="Path-229"></path>
                        </g>
                    </g>
                </g>
            </g>
        </g>
    </g>
</svg>